<svg viewBox="0 0 22 32" fill="currentColor" aria-hidden="true"><path d="M21.868,11.504L18,4.735V1c0-0.552-0.448-1-1-1H6C5.448,0,5,0.448,5,1v3.68l-4.814,6.739 c-0.028,0.039-0.042,0.085-0.064,0.127c-0.018,0.034-0.037,0.065-0.051,0.102C0.028,11.761,0,11.878,0,12v19c0,0.553,0.448,1,1,1 h20c0.552,0,1-0.447,1-1V12C22,11.826,21.955,11.655,21.868,11.504z M16,2v2H7V2H16z M2,30V13h6c0.552,0,1-0.448,1-1s-0.448-1-1-1 H2.943l3.572-5h8.762l-3.145,5.504C12.045,11.655,12,11.826,12,12v18H2z M20,30h-6V12.266l3-5.25l3,5.25V30z"/></svg>
